/* XPM */
static const char * IconViewOrthographic[] = {
/* width height ncolors chars_per_pixel */
"32 32 169 2",
/* colors */
"   c #2C1E1E",
" . c #807777",
" X c #473D49",
" o c #945656",
" O c #1E1010",
" + c #1C0E0E",
" @ c #706767",
" # c #2A1C1F",
" $ c #41343C",
" % c #352323",
" & c #9F5D5D",
" * c #B8B4B4",
" = c #B6B2B2",
" - c #B6B6DD",
" ; c #B4B0B0",
" : c #B2AEAE",
" > c #5C5353",
" , c #C2C2EC",
" < c #B0ACAC",
" 1 c #C0C0EA",
" 2 c #463A44",
" 3 c #3B292C",
" 4 c #564A57",
" 5 c #291717",
" 6 c #817B95",
" 7 c #69B369",
" 8 c #9B9494",
" 9 c #271515",
" 0 c #251313",
" q c #5B9358",
" w c #4F4450",
" e c #231111",
" r c #A4A0A0",
" t c #241515",
" y c #201111",
" u c #D9D7D7",
" i c #1E0F0F",
" p c #915555",
" a c #543030",
" s c #5E5454",
" d c #473B44",
" f c #363426",
" g c #25191C",
" h c #23171A",
" j c #271414",
" k c #5C9458",
" l c #884F4F",
" z c #251212",
" x c #A6A1A1",
" c c #4E7447",
" v c #281818",
" b c #544957",
" n c #534956",
" m c #201010",
" M c #CE7979",
" N c None",
" B c #2B1E1E",
" V c #706565",
" C c #935656",
" Z c #CFCCCC",
" A c #5B4D4D",
" S c #332429",
" D c #563131",
" F c #3C2E35",
" G c #271A1D",
" H c #261A1C",
" J c #B0AAAA",
" K c #291515",
" L c #271313",
" P c #3E323A",
" I c #507548",
" U c #504545",
" Y c #4C4141",
" T c #5B5353",
" R c #362F28",
" E c #554A57",
" W c #281717",
" Q c #807B95",
" ! c #313123",
" ~ c #714141",
" ^ c #221111",
" / c #857C7C",
" ( c #35412A",
" ) c #2D1F1F",
" _ c #726666",
" ` c #473E49",
" ' c #955757",
" ] c #DEDDDD",
" [ c #9E9BBC",
" { c #35252A",
" } c #DAD9D9",
" | c #534A44",
".  c #D8D7D7",
".. c #C1BDBD",
".X c #574D55",
".o c #4B3C3C",
".O c #32252A",
".+ c #485E3C",
".@ c #9E5C5C",
".# c #5D5454",
".$ c #B1ADAD",
".% c #415235",
".& c #5B5252",
".* c #613737",
".= c #2A1818",
".- c #817C95",
".; c #534754",
".: c #524753",
".> c #9A9393",
"., c #241212",
".< c #2D1E1E",
".1 c #975858",
".2 c #473D48",
".3 c #3B2A2F",
".4 c #261C17",
".5 c #908CAA",
".6 c #534957",
".7 c #605767",
".8 c #1F1010",
".9 c #6D6363",
".0 c #532F2F",
".q c #B7B6DD",
".w c #5F5555",
".e c #2E1B1B",
".r c #473C44",
".t c #261A1D",
".y c #473A44",
".u c #24181B",
".i c #343324",
".p c #23181A",
".a c #483B3B",
".s c #281515",
".d c #68AF67",
".f c #261313",
".g c #874E4E",
".h c #5A8F56",
".j c #4F7548",
".k c #9B5B5B",
".l c #A39E9E",
".z c #2F1F1F",
".x c #2F1D1F",
".c c #415737",
".v c #493E49",
".b c #534856",
".n c #362929",
".m c #251515",
".M c #231313",
".N c #211111",
".B c #2E1F21",
".V c #331C1C",
".C c #925555",
".Z c #A29FC1",
".A c #A19FC0",
".S c #584A4A",
".D c #553030",
".F c #5C5465",
".G c #5F5454",
".H c #281B1E",
".J c #454837",
".K c #26191C",
".L c #281414",
".P c #4F7447",
".I c #435838",
".U c #B0ADAD",
".Y c #405235",
".T c #343826",
".R c #524754",
".E c #231212",
".W c #211010",
/* pixels */
" N N N N N N N N N N N s.: , Q.H @ } N N N N N N N N N N N N N N",
" N N N N N N N N N N s w 1 , , , [ ` Y = N N N N N N N N N N N N",
" N N N N N N N N N.G E , , , , , , ,.Z.F.n.l ] N N N N N N N N N",
" N N N N N N N N.w 4 1 , , , , , , , , ,.q 6.r / Z N N N N N N N",
" N N N N N N N.9.; 1 , , , , , , , , , , , , ,.Z.7 U J N N N N N",
" N N N N N N x.R 1 , , , , , , , , , , , , , , , , ,.5.X . Z N N",
" N N N N N x.R 1 , , , , , , , , , , , , , , , , , , , , P.6 ; N",
" N N N N x.; , , , , , , , , , , , , , , , , , , , , ,.b 2 h ; N",
" N N N x $.q , , , , , , , , , , , , , , , , , , , , n 2.u.s * N",
" N N r.M.q , , , , , , , , , , , , , , , , , , , ,.6.y.p o.1 : N",
" N N {.O.K Q - , , , , , , , , , , , , , , , , , b.R h o M.k.$ N",
" N N !.i.x.B +.2.A , , , , , , , , , , , , , , b.: g o M M '.$ N",
" N N ! 7 q.Y j F t G Q.q , , , , , , , , , , b d H o M M M &.$ N",
" N N 9 7 7 7 7.P.i 3.m + X.Z , , , , , , , b d.t C M M M M.C.$ N",
" N N % 7 7 7 7 7 7 k.%.L., i G.-.q , , , E ^ G C M M M M M.C.$ N",
" N N.= 7 7 7 7 7 7 7 7 7.j f.e v +.v.Z E S G C M M M M M M.C.U N",
" N N.f 7 7 7 7 7 7 7 7 7 7 7 k.%.3 5 i O + C M M M M M M M p.U N",
" N N j q 7 7 7 7 7 7 7 7 7 7 7 7 7.j z #.g M M M M M M M M p.U N",
" N N j k 7 7 7 7 7 7 7 7 7 7 7 7 7 7 e.8.@ M M M M M M M M p.U N",
" N N j 7 7 7 7 7 7 7 7 7 7 7 7 7 7 7.,.N.@ M M M M M M M M p.U N",
" N N j 7 7 7 7 7 7 7 7 7 7 7 7 7 7 7 z ^.@ M M M M M M M M l < N",
" N N.L 7 7 7 7 7 7 7 7 7 7 7 7 7 7 7 0.E.@ M M M M M M M M ~ < N",
" N N.L 7 7 7 7 7 7 7 7 7 7 7 7 7 7 7.f W.@ M M M M M M M.*.& N N",
" N N K 7 7 7 7 7 7 7 7 7 7 7 7 7 7 7.f.E.@ M M M M M M.0 T N N N",
" N N.L 7 7 7 7 7 7 7 7 7 7 7 7 7 7 7 L ^.@ M M M M M.0 > N N N N",
" N N | I 7 7 7 7 7 7 7 7 7 7 7 7 7 7 L.E.@ M M M M a > N N N N N",
" N N N.. A.+ k 7 7 7 7 7 7 7 7 7 7 7 j.W.@ M M M a.# N N N N N N",
" N N N N N u _.J c 7 7 7 7 7 7 7 7 7.L.8.@ M M a B N N N N N N N",
" N N N N N N N N 8.o.I.d 7 7 7 7 7 7.L m.@ M.D  .  N N N N N N N",
" N N N N N N N N N N...S.T.h 7 7 7 7.L y.@ D ).  N N N N N N N N",
" N N N N N N N N N N N N u V R.c.d 7.L m.V.z.  N N N N N N N N N",
" N N N N N N N N N N N N N N N.>.a.4.L (.<.  N N N N N N N N N N"
};
