/* XPM */
static const char * IconViewPerspective[] = {
/* width height ncolors chars_per_pixel */
"32 32 231 2",
/* colors */
"   c #2A1C1C",
" . c #7E7575",
" X c #472828",
" o c #5B3535",
" O c #A66161",
" + c #635757",
" @ c #1C0E0E",
" # c #281A1D",
" $ c #6C6363",
" % c #C0BCBC",
" & c #BEBABA",
" * c #7E778F",
" = c #A9A2A2",
" - c #352323",
" ; c #3F323A",
" : c #332121",
" > c #2E211C",
" , c #2F1D1D",
" < c #643A3A",
" 1 c #B2AEAE",
" 2 c #649F61",
" 3 c #2C1F1A",
" 4 c #578751",
" 5 c #5C5353",
" 6 c #415135",
" 7 c #483C46",
" 8 c #544855",
" 9 c #323123",
" 0 c #313122",
" q c #271515",
" w c #68B168",
" e c #5D975A",
" r c #251313",
" t c #231111",
" y c #5A9157",
" u c #2E1F1F",
" i c #492929",
" p c #463C47",
" a c #938FAD",
" s c #453C46",
" d c #9E9BBB",
" f c #4D4451",
" g c #D9D7D7",
" h c #655858",
" j c #5B5262",
" k c #1E0F0F",
" l c #CC7878",
" z c #2B1D1F",
" x c #291D1D",
" c c #2A1B1E",
" v c #4E3E3E",
" b c #AFADD2",
" n c #A15E5E",
" m c #352222",
" M c #4C523F",
" N c #B36969",
" B c #5E5454",
" V c #B2ADAD",
" C c #2D1A1A",
" Z c #363426",
" A c #2B1818",
" S c #696262",
" D c #343224",
" F c #291616",
" G c #D77F7F",
" H c #271414",
" J c #251212",
" K c #5B9257",
" L c #524848",
" P c #504646",
" I c #63A662",
" U c #425838",
" Y c #4D2C2C",
" T c #353C28",
" R c #2A201A",
" E c #558651",
" W c #548650",
" Q c #3D5033",
" ! c #261C16",
" ~ c #969191",
" ^ c #221212",
" / c #5D5363",
" ( c #201010",
" ) c None",
" _ c #2B1E1E",
" ` c #2C1C1F",
" ' c #442626",
" ] c #594B4B",
" [ c #756D6D",
" { c #1B0E0E",
" } c #605555",
" | c #B4AEAE",
".  c #C77575",
".. c #271A1D",
".X c #6B6363",
".o c #261A1C",
".O c #BFBCBC",
".+ c #473A43",
".@ c #D98080",
".# c #493B3B",
".$ c #BCBCE4",
".% c #7F7991",
".& c #271313",
".* c #3D2222",
".= c #A8A2A2",
".- c #8B85A0",
".; c #3B3037",
".: c #383D2A",
".> c #373D29",
"., c #578752",
".< c #568751",
".1 c #405135",
".2 c #453A44",
".3 c #534855",
".4 c #313123",
".5 c #9A9494",
".6 c #989292",
".7 c #4E4450",
".8 c #665D64",
".9 c #9D9BBB",
".0 c #DAD9D9",
".q c #D8D7D7",
".w c #5A5262",
".e c #1B0D0D",
".r c #686073",
".t c #3E322C",
".y c #B2B1D6",
".u c #C1BDBD",
".i c #6B6262",
".p c #8E5353",
".a c #382626",
".s c #3F2323",
".d c #7F7890",
".f c #342222",
".g c #3E3139",
".h c #B1ADAD",
".j c #2C1A1A",
".k c #483C3C",
".l c #281616",
".z c #734242",
".x c #9A9393",
".c c #7D7891",
".v c #241212",
".b c #5B9258",
".n c #5A9257",
".m c #4F4646",
".M c #2F2020",
".N c #4C7246",
".B c #4B7245",
".V c #2D1E1E",
".C c #353C29",
".Z c #574D5B",
".A c #928EAC",
".S c #5C5363",
".D c #1D0E0E",
".F c #2B1C1F",
".G c #281C1C",
".H c #6D6363",
".J c #695F5F",
".K c #A25F5F",
".L c #332520",
".P c #40323A",
".I c #301D1D",
".U c #653A3A",
".Y c #B3AEAE",
".T c #2E1B1B",
".R c #BEBCBC",
".E c #24181B",
".W c #343324",
".Q c #2A1717",
".! c #6AB169",
".~ c #9C9494",
".^ c #281515",
"./ c #D67E7E",
".( c #7E7991",
".) c #261313",
"._ c #40343D",
".` c #66AB65",
".' c #39412C",
".] c #8A85A0",
".[ c #9B5B5B",
".{ c #3B3038",
".} c #4A404A",
".| c #4C2B2B",
"X  c #3F5135",
"X. c #938FAC",
"XX c #251515",
"Xo c #504653",
"XO c #2E2F21",
"X+ c #979292",
"X@ c #231313",
"X# c #413737",
"X$ c #211111",
"X% c #2D1D20",
"X& c #716666",
"X* c #2C1D1F",
"X= c #2A1D1D",
"X- c #5A4C4C",
"X; c #CCC9C9",
"X: c #584A4A",
"X> c #573232",
"X, c #1C0F0F",
"X< c #1A0D0D",
"X1 c #301C1C",
"X2 c #C0BDBD",
"X3 c #26191C",
"X4 c #BEBBBB",
"X5 c #231719",
"X6 c #BDBDE5",
"X7 c #43373F",
"X8 c #281414",
"X9 c #3E2323",
"X0 c #7C768E",
"Xq c #9D5C5C",
"Xw c #3D3139",
"Xe c #4F7447",
"Xr c #64A662",
"Xt c #435838",
"Xy c #383E2A",
"Xu c #2F1E1E",
"Xi c #87829C",
"Xp c #493D48",
"Xa c #B0ADAD",
"Xs c #483D47",
"Xd c #603737",
"Xf c #524754",
"Xg c #999393",
"Xh c #433838",
"Xj c #979191",
"Xk c #231212",
"Xl c #5E5363",
/* pixels */
" ) ) ) ) ) ) ) ) ) ) ) ).q 5Xh x.X.h ) ) ) ) ) ) ) ) ) ) ) ) ) )",
" ) ) ) ) ) ) ) ) ) ) )Xj # *X6 b.% pX, L.5.0 ) ) ) ) ) ) ) ) ) )",
" ) ) ) ) ) ) ) ) ).O _ /.yX6X6X6X6X6X6 aXpXw.k .X; ) ) ) ) ) ) )",
" ) ) ) ) ) ) ).q B ; dX6X6X6X6X6X6X6X6X6X6X6.yX.Xs  .J & ) ) ) )",
" ) ) ) ) ) ).6 `.d.$X6X6X6X6X6X6X6X6X6X6X6X6X6X6X6X6.y.A.}.8 [ V",
" ) ) ) ).O uXlX6X6X6X6X6X6X6X6X6X6X6X6X6X6X6X6X6X6X6X6X6.y cXi.m",
" ) ).q }.P.yX6X6X6X6X6X6X6X6X6X6X6X6X6X6X6X6X6X6X6X6X6X6.g 7.EX+",
" ).XX%.-X6X6X6X6X6X6X6X6X6X6X6X6X6X6X6X6X6X6X6X6X6X6X6Xf ` f o 1",
"X:X7X5 s.9X6X6X6X6X6X6X6X6X6X6X6X6X6X6X6X6X6X6X6X6X6.]X*.2X> Y )",
".x.) CXu.D.o.c.yX6X6X6X6X6X6X6X6X6X6X6X6X6X6X6X6X6 dX$.rX9./.a )",
" %.v IXe 3.l ^ @.w dX6X6X6X6X6X6X6X6X6X6X6X6X6X6.y.F.Z q l.  L )",
" ) J.< w w.b.W F , k.;.(X6X6X6X6X6X6X6X6X6X6X6X6 ;.+.E l.@ nXj )",
" )X: M w w w wXr.1.L -XX.e j dX6X6X6X6X6X6X6X6.3 8X3.[.@.@ i.h )",
" ).x F I w w w w w w., Z.^Xk @.{X.X6X6X6X6X6.]X%Xo <.@.@ GX9 ) )",
" )X2 H E w w w w w w w w K 6.T.jXX...S.yX6 dX*.7X>.@.@.@ G.G ) )",
" ) ).f.N w w w w w w w w w w wXe >.IX@ @Xw zX0 q.@.@.@.@.K P ) )",
" ) ) ].> w w w w w w w w w w w w w.bXy.Q.v._ q l.@.@.@.@Xd ~ ) )",
" ) ).Y r w w w w w w w w w w w w w w wXr 9 ( O.@.@.@.@.@.*Xa ) )",
" ) ) g.& W w w w w w w w w w w w w w w w T ( O.@.@.@.@ GX< ) ) )",
" ) ) ) m Q w w w w w w w w w w w w w w w 0X$ O.@.@.@.@ 'X# ) ) )",
" ) ) )X-.' w w w w w w w w w w w w w w w A k N.@.@.@XqX<X4 ) ) )",
" ) ) ) |.& w w w w w w w w w w w w w w w F k.@.@.@.@ F S ) ) ) )",
" ) ) ) gX1 2 w w w w w w w w w w w w w w H {.@.@.@.U.G ) ) ) ) )",
" ) ) ) ) h.tX  I w w w w w w w w w w w.nX8 @.@.@ lX<.R ) ) ) ) )",
" ) ) ) ) ).u v.v K w w w w w w w w w w.<.&.s.@.@.s.i ) ) ) ) ) )",
" ) ) ) ) ) ) ) = m.4.! w w w w w w w w.<.).|.@.pX= ) ) ) ) ) ) )",
" ) ) ) ) ) ) ) ) ).~ :Xt.` w w w w w w 4.).| l.l.O ) ) ) ) ) ) )",
" ) ) ) ) ) ) ) ) ) ) gX& R.B w w w w w.C t.|.z.H ) ) ) ) ) ) ) )",
" ) ) ) ) ) ) ) ) ) ) ) ) g + ! y w w w.:Xk.p.V ) ) ) ) ) ) ) ) )",
" ) ) ) ) ) ) ) ) ) ) ) ) ) )X2.#XO e w.:XX X.O ) ) ) ) ) ) ) ) )",
" ) ) ) ) ) ) ) ) ) ) ) ) ) ) ) ).=.M U D k $ ) ) ) ) ) ) ) ) ) )",
" ) ) ) ) ) ) ) ) ) ) ) ) ) ) ) ) ) )Xg r x.q ) ) ) ) ) ) ) ) ) )"
};
